<svg id="Layer_1" enable-background="new 0 0 512 512" height="512" viewBox="0 0 512 512" width="512" xmlns="http://www.w3.org/2000/svg"><g><path d="m409.28 88.5v401.03c0 8.27-6.71 14.97-14.98 14.97h-320.05c-8.27 0-14.97-6.7-14.97-14.97v-467.06c0-8.27 6.7-14.97 14.97-14.97h254.03z" fill="#e6fdff"/><path d="m409.28 88.5v401.03c0 8.27-6.71 14.97-14.98 14.97h-320.05c-8.27 0-14.97-6.7-14.97-14.97v-15.02h297.79c11.31 0 20.48-9.17 20.48-20.49v-365.52l-54.61-81h5.34z" fill="#c1eaf4"/><path d="m409.28 88.5h-31.73l-49.27-.01v-80.99z" fill="#aec9d6"/><path d="m409.28 88.5h-31.73l-49.27-73.07v-7.93z" fill="#8fb2bc"/><path d="m144.75 278.43h307.97v160h-307.97z" fill="#ff6986"/><path d="m452.72 278.43v160h-307.97v-20h265.22c11.23 0 20.34-9.11 20.34-20.34v-119.66z" fill="#ea3487"/></g><g><path d="m409.275 460.653c-4.142 0-7.5 3.358-7.5 7.5v21.373c0 4.121-3.353 7.474-7.474 7.474h-320.051c-4.122 0-7.475-3.353-7.475-7.474v-391.56c0-4.142-3.358-7.5-7.5-7.5s-7.5 3.358-7.5 7.5v391.56c0 12.392 10.082 22.474 22.475 22.474h320.051c12.392 0 22.474-10.082 22.474-22.474v-21.373c0-4.142-3.358-7.5-7.5-7.5z"/><path d="m59.275 70.549c4.142 0 7.5-3.358 7.5-7.5v-40.575c0-4.121 3.353-7.474 7.475-7.474h246.525v73.486c0 4.142 3.357 7.5 7.499 7.5l73.501.012v152.99c0 4.142 3.358 7.5 7.5 7.5s7.5-3.358 7.5-7.5v-160.488c0-1.989-.79-3.897-2.197-5.303l-81-81c-1.406-1.407-3.314-2.197-5.303-2.197h-254.025c-12.393 0-22.475 10.082-22.475 22.474v40.575c0 4.142 3.358 7.5 7.5 7.5zm276.5-44.943 55.391 55.391-55.391-.009z"/><path d="m452.725 270.931h-307.975c-4.142 0-7.5 3.358-7.5 7.5v160c0 4.142 3.358 7.5 7.5 7.5h58.614c4.142 0 7.5-3.358 7.5-7.5s-3.358-7.5-7.5-7.5h-51.114v-145h292.975v145h-207.113c-4.142 0-7.5 3.358-7.5 7.5s3.358 7.5 7.5 7.5h214.613c4.142 0 7.5-3.358 7.5-7.5v-160c0-4.142-3.358-7.5-7.5-7.5z"/><path d="m324.172 131.466h-179.422c-4.142 0-7.5 3.358-7.5 7.5s3.358 7.5 7.5 7.5h179.422c4.142 0 7.5-3.358 7.5-7.5s-3.358-7.5-7.5-7.5z"/><path d="m324.172 175.7h-179.422c-4.142 0-7.5 3.358-7.5 7.5s3.358 7.5 7.5 7.5h179.422c4.142 0 7.5-3.358 7.5-7.5s-3.358-7.5-7.5-7.5z"/><path d="m324.172 220.815h-35.447c-4.142 0-7.5 3.358-7.5 7.5s3.358 7.5 7.5 7.5h35.447c4.142 0 7.5-3.358 7.5-7.5s-3.358-7.5-7.5-7.5z"/><path d="m144.75 220.815c-4.142 0-7.5 3.358-7.5 7.5s3.358 7.5 7.5 7.5h108.678c4.142 0 7.5-3.358 7.5-7.5s-3.358-7.5-7.5-7.5z"/><path d="m250.326 342.014v-13.711c0-13.188-10.729-23.917-23.918-23.917h-31.759c-4.142 0-7.5 3.358-7.5 7.5v93.093c0 4.142 3.358 7.5 7.5 7.5s7.5-3.358 7.5-7.5v-39.046h24.259c13.188-.002 23.918-10.731 23.918-23.919zm-15 0c0 4.917-4 8.917-8.918 8.917h-24.259v-31.546h24.259c4.917 0 8.918 4 8.918 8.917z"/><path d="m404.873 319.385c4.142 0 7.5-3.358 7.5-7.5s-3.358-7.5-7.5-7.5h-48.177c-4.142 0-7.5 3.358-7.5 7.5v93.093c0 4.142 3.358 7.5 7.5 7.5s7.5-3.358 7.5-7.5v-39.046h40.677c4.142 0 7.5-3.358 7.5-7.5s-3.358-7.5-7.5-7.5h-40.677v-31.546h40.677z"/><path d="m306.408 412.478c13.188 0 23.918-10.729 23.918-23.917v-60.258c0-13.188-10.729-23.917-23.918-23.917h-31.759c-4.142 0-7.5 3.358-7.5 7.5v93.093c0 4.142 3.358 7.5 7.5 7.5h31.759zm-24.259-93.093h24.259c4.917 0 8.918 4 8.918 8.917v60.258c0 4.917-4 8.917-8.918 8.917h-24.259z"/></g></svg>